<svg width="129" height="25" viewBox="0 0 129 25" fill="none" xmlns="http://www.w3.org/2000/svg">
<path d="M10.968 11.872C13.272 12.896 14.424 14.6133 14.424 17.024C14.424 19.136 13.7627 20.8533 12.44 22.176C11.0533 23.5627 9.15467 24.256 6.744 24.256C5.74133 24.256 4.696 24.16 3.608 23.968C2.75467 23.8187 1.90133 23.616 1.048 23.36L0.12 23.04V17.28H1.688C2.05067 17.28 2.264 17.4613 2.328 17.824C2.37067 17.9947 2.424 18.5173 2.488 19.392L2.584 20.8C4.248 21.3973 5.54933 21.696 6.488 21.696C7.42667 21.696 8.216 21.5893 8.856 21.376C9.47467 21.184 9.96533 20.896 10.328 20.512C11.1387 19.7653 11.544 18.752 11.544 17.472C11.544 16.2347 10.968 15.296 9.816 14.656C9.304 14.336 8.728 14.08 8.088 13.888C5.80533 13.184 4.46133 12.736 4.056 12.544C3.43733 12.2667 2.85067 11.8827 2.296 11.392C1.16533 10.3893 0.6 8.96 0.6 7.104C0.6 5.41867 1.208 3.968 2.424 2.752C3.74667 1.472 5.45333 0.831999 7.544 0.831999C9.76267 0.831999 11.9067 1.25867 13.976 2.112V7.392H12.44C12.056 7.392 11.832 7.21067 11.768 6.848C11.768 6.784 11.7467 6.57067 11.704 6.208C11.6827 5.824 11.6293 5.088 11.544 4C10.0507 3.59467 8.792 3.392 7.768 3.392C6.38133 3.392 5.31467 3.73333 4.568 4.416C3.84267 5.07733 3.48 5.93067 3.48 6.976C3.48 8.10667 4.056 8.992 5.208 9.632C5.67733 9.93067 6.27467 10.1973 7 10.432C8.92 11.072 10.264 11.552 11.032 11.872H10.968ZM37.1395 21.664L39.0595 22.048C39.3155 22.112 39.4435 22.304 39.4435 22.624V24H31.6995V22.624C31.6995 22.2827 31.8702 22.08 32.2115 22.016L34.0035 21.664V13.568H21.6515V21.664C23.1875 21.984 23.9555 22.304 23.9555 22.624V24H16.2435V22.624C16.2435 22.2827 16.4035 22.08 16.7235 22.016L18.5475 21.664V3.392L16.6275 3.008C16.3715 2.944 16.2435 2.752 16.2435 2.432V1.088H23.9555V2.432C23.9555 2.752 23.8488 2.944 23.6355 3.008C23.4008 3.072 22.7502 3.2 21.6835 3.392V11.296H34.0355V3.392L32.1155 3.008C31.8595 2.944 31.7315 2.752 31.7315 2.432V1.088H39.4755V2.432C39.4755 2.77333 39.3155 2.976 38.9955 3.04L37.1395 3.392V21.664ZM63.7335 12.608C63.7335 14.8907 63.2535 16.928 62.2935 18.72C61.3335 20.4907 60.0002 21.8667 58.2935 22.848C56.5868 23.8293 54.6455 24.32 52.4695 24.32C50.2722 24.32 48.3095 23.8187 46.5815 22.816C44.8535 21.8133 43.5095 20.4267 42.5495 18.656C41.6108 16.864 41.1415 14.8373 41.1415 12.576C41.1415 10.3147 41.6108 8.29867 42.5495 6.528C43.5095 4.736 44.8428 3.33867 46.5495 2.336C48.2775 1.33333 50.2508 0.831999 52.4695 0.831999C54.6882 0.831999 56.6508 1.33333 58.3575 2.336C60.0642 3.31733 61.3868 4.69333 62.3255 6.464C63.2855 8.23467 63.7655 10.2613 63.7655 12.544L63.7335 12.608ZM60.5335 12.608C60.5335 9.856 59.8188 7.66933 58.3895 6.048C56.9815 4.40533 54.9868 3.584 52.4055 3.584C50.6775 3.584 49.2055 3.968 47.9895 4.736C46.7735 5.504 45.8455 6.57067 45.2055 7.936C44.5868 9.30133 44.2775 10.8587 44.2775 12.608C44.2775 14.4213 44.6082 16.0107 45.2695 17.376C45.9308 18.72 46.8695 19.7653 48.0855 20.512C49.3228 21.2587 50.7735 21.632 52.4375 21.632C54.1228 21.632 55.5735 21.2587 56.7895 20.512C58.0055 19.744 58.9335 18.6773 59.5735 17.312C60.2348 15.9467 60.5655 14.3787 60.5655 12.608H60.5335ZM78.0665 1.536C81.2238 2.56 82.8025 4.77867 82.8025 8.192C82.8025 10.3893 82.0772 12.1173 80.6265 13.376C79.0692 14.7413 76.9572 15.424 74.2905 15.424H71.0265V21.664C71.1972 21.728 71.8158 21.856 72.8825 22.048C73.1812 22.112 73.3305 22.3147 73.3305 22.656V24H65.6505V22.656C65.6505 22.3147 65.8105 22.112 66.1305 22.048L67.9545 21.696V3.424C66.9305 3.232 66.3225 3.104 66.1305 3.04C65.8105 2.976 65.6505 2.77333 65.6505 2.432V1.088H74.2905C75.7198 1.088 76.9785 1.248 78.0665 1.568V1.536ZM79.6985 8.128C79.6985 6.69867 79.2505 5.568 78.3545 4.736C77.4798 3.92533 76.1252 3.52 74.2905 3.52H71.0265V12.928H74.2905C76.0185 12.928 77.3518 12.5013 78.2905 11.648C79.2505 10.7733 79.7305 9.61067 79.7305 8.16L79.6985 8.128ZM80.908 22.272C80.908 22.0373 80.9613 21.7813 81.068 21.504C81.1533 21.2693 81.292 21.056 81.484 20.864C81.6547 20.6933 81.868 20.544 82.124 20.416C82.2947 20.3307 82.5507 20.288 82.892 20.288C83.2333 20.288 83.4893 20.3307 83.66 20.416C83.8733 20.5227 84.076 20.672 84.268 20.864C84.46 21.056 84.5987 21.2693 84.684 21.504C84.7693 21.7387 84.812 21.9947 84.812 22.272C84.812 22.5493 84.7693 22.8053 84.684 23.04C84.5987 23.2747 84.46 23.488 84.268 23.68C84.0973 23.8507 83.8947 23.9787 83.66 24.064C83.3827 24.1707 83.1267 24.224 82.892 24.224C82.6573 24.224 82.4013 24.1707 82.124 24.064C81.8467 23.9573 81.6333 23.8293 81.484 23.68C81.292 23.488 81.1533 23.2747 81.068 23.04C80.9613 22.7627 80.908 22.5067 80.908 22.272ZM104.8 7.808H103.264C102.858 7.808 102.624 7.616 102.56 7.232L102.304 4.352C100.512 3.776 98.9011 3.488 97.4718 3.488C95.0611 3.488 93.0771 4.29867 91.5198 5.92C89.9624 7.60533 89.1838 9.81333 89.1838 12.544C89.1838 14.3147 89.5038 15.8827 90.1438 17.248C90.8051 18.6133 91.7331 19.68 92.9278 20.448C94.1438 21.1947 95.5518 21.568 97.1518 21.568C98.3891 21.568 99.4664 21.4187 100.384 21.12C101.322 20.8 102.197 20.2667 103.008 19.52C103.2 19.3493 103.392 19.264 103.584 19.264C103.754 19.264 103.904 19.328 104.032 19.456L105.248 20.8C103.264 23.104 100.512 24.256 96.9918 24.256C94.7731 24.256 92.8318 23.7547 91.1678 22.752C89.5251 21.728 88.2558 20.3307 87.3598 18.56C86.4851 16.7893 86.0478 14.784 86.0478 12.544C86.0478 9.10933 87.1144 6.29333 89.2478 4.096C91.3598 1.92 94.2504 0.831999 97.9198 0.831999C99.6264 0.831999 101.92 1.36533 104.8 2.432V7.808ZM128.952 12.608C128.952 14.8907 128.472 16.928 127.512 18.72C126.552 20.4907 125.219 21.8667 123.512 22.848C121.806 23.8293 119.864 24.32 117.688 24.32C115.491 24.32 113.528 23.8187 111.8 22.816C110.072 21.8133 108.728 20.4267 107.768 18.656C106.83 16.864 106.36 14.8373 106.36 12.576C106.36 10.3147 106.83 8.29867 107.768 6.528C108.728 4.736 110.062 3.33867 111.768 2.336C113.496 1.33333 115.47 0.831999 117.688 0.831999C119.907 0.831999 121.87 1.33333 123.576 2.336C125.283 3.31733 126.606 4.69333 127.544 6.464C128.504 8.23467 128.984 10.2613 128.984 12.544L128.952 12.608ZM125.752 12.608C125.752 9.856 125.038 7.66933 123.608 6.048C122.2 4.40533 120.206 3.584 117.624 3.584C115.896 3.584 114.424 3.968 113.208 4.736C111.992 5.504 111.064 6.57067 110.424 7.936C109.806 9.30133 109.496 10.8587 109.496 12.608C109.496 14.4213 109.827 16.0107 110.488 17.376C111.15 18.72 112.088 19.7653 113.304 20.512C114.542 21.2587 115.992 21.632 117.656 21.632C119.342 21.632 120.792 21.2587 122.008 20.512C123.224 19.744 124.152 18.6773 124.792 17.312C125.454 15.9467 125.784 14.3787 125.784 12.608H125.752Z" fill="black"/>
</svg>
