<svg width="81" height="19" viewBox="0 0 81 19" fill="none" xmlns="http://www.w3.org/2000/svg">
<path d="M9.33738 0L11.9828 5.6963L18.2177 6.45197L13.6177 10.7281L14.8257 16.8915L9.33738 13.838L3.849 16.8915L5.05704 10.7281L0.457004 6.45197L6.69198 5.6963L9.33738 0Z" fill="#FFC633"/>
<path d="M33.3772 0L36.0226 5.6963L42.2576 6.45197L37.6576 10.7281L38.8656 16.8915L33.3772 13.838L27.8889 16.8915L29.0969 10.7281L24.4969 6.45197L30.7318 5.6963L33.3772 0Z" fill="#FFC633"/>
<path d="M57.4171 0L60.0625 5.6963L66.2975 6.45197L61.6975 10.7281L62.9055 16.8915L57.4171 13.838L51.9287 16.8915L53.1368 10.7281L48.5367 6.45197L54.7717 5.6963L57.4171 0Z" fill="#FFC633"/>
<path d="M75.5116 16.8915L81 13.838V0L78.3546 5.6963L72.1196 6.45197L76.7196 10.7281L75.5116 16.8915Z" fill="#FFC633"/>
</svg>
